<?xml version="1.0" standalone="no"?><!DOCTYPE svg PUBLIC "-//W3C//DTD SVG 1.1//EN" "http://www.w3.org/Graphics/SVG/1.1/DTD/svg11.dtd"><svg t="1638253158040" class="icon" viewBox="0 0 1024 1024" version="1.1" xmlns="http://www.w3.org/2000/svg" p-id="1500" xmlns:xlink="http://www.w3.org/1999/xlink" width="200" height="200"><defs><style type="text/css"></style></defs><path d="M783.915092 1009.031953l-271.898251-277.615587-271.930737 277.550617a49.214558 49.214558 0 0 1-70.752018 0 51.780862 51.780862 0 0 1 0-72.246322l307.274261-313.706262a49.279528 49.279528 0 0 1 70.784503 0l307.33923 313.706262a51.975771 51.975771 0 0 1 0 72.311292 49.409467 49.409467 0 0 1-70.816988 0z m-307.306745-608.05155L169.269117 87.274141A51.975771 51.975771 0 0 1 169.269117 14.96285a49.409467 49.409467 0 0 1 70.816987 0l271.930737 277.615586L783.850122 14.96285a49.409467 49.409467 0 0 1 70.816988 0 51.975771 51.975771 0 0 1 0 72.311291l-307.33923 313.706262a49.376982 49.376982 0 0 1-70.719533 0z" fill="#ffffff" p-id="1501"></path></svg>