<?xml version="1.0" standalone="no"?><!DOCTYPE svg PUBLIC "-//W3C//DTD SVG 1.1//EN" "http://www.w3.org/Graphics/SVG/1.1/DTD/svg11.dtd"><svg t="1636008722997" class="icon" viewBox="0 0 1024 1024" version="1.1" xmlns="http://www.w3.org/2000/svg" p-id="1044" xmlns:xlink="http://www.w3.org/1999/xlink" width="200" height="200"><defs><style type="text/css"></style></defs><path d="M206 865l-38 0c-30.928 0-56-25.072-56-56L112 215.99999999c0-30.928 25.072-56 56-55.99999999l38 0c30.928 0 56 25.072 56 56l0 593c0 30.928-25.072 56-56 56z m168.686-386.191l422.304-303.40000001c32.294-23.201 77.282-15.83 100.484 16.46400001A72 72 0 0 1 911 233.883l0 559.053c0 39.764-32.235 72-72 72a72 72 0 0 1-39.95-12.1L376.288 570.877c-25.73-17.16000001-32.677-51.93-15.517-77.66a56 56 0 0 1 13.915-14.408z" fill="#d33a31" p-id="1045"></path></svg>