<?xml version="1.0" standalone="no"?><!DOCTYPE svg PUBLIC "-//W3C//DTD SVG 1.1//EN" "http://www.w3.org/Graphics/SVG/1.1/DTD/svg11.dtd"><svg t="1636009508008" class="icon" viewBox="0 0 1024 1024" version="1.1" xmlns="http://www.w3.org/2000/svg" p-id="1606" xmlns:xlink="http://www.w3.org/1999/xlink" width="200" height="200"><defs><style type="text/css"></style></defs><path d="M992 898.133333h-81.066667c-142.933333 0-275.2-66.133333-366.933333-183.466666-10.666667-14.933333-8.533333-34.133333 6.4-44.8s34.133333-8.533333 44.8 6.4c78.933333 100.266667 194.133333 160 315.733333 160h81.066667c17.066667 0 32 14.933333 32 32s-14.933333 29.866667-32 29.866666zM458.666667 507.733333c-10.666667 0-23.466667-6.4-27.733334-17.066666-72.533333-140.8-211.2-228.266667-360.533333-228.266667H32c-17.066667 0-32-14.933333-32-32s14.933333-32 32-32h38.4c172.8 0 332.8 100.266667 418.133333 262.4 8.533333 14.933333 2.133333 34.133333-12.8 42.666667-6.4 2.133333-10.666667 4.266667-17.066666 4.266666z" fill="#8a8a8a" p-id="1607"></path><path d="M113.066667 898.133333H32c-17.066667 0-32-14.933333-32-32s14.933333-32 32-32h81.066667c172.8 0 330.666667-119.466667 390.4-296.533333 59.733333-177.066667 204.8-305.066667 377.6-332.8 17.066667-2.133333 34.133333 8.533333 36.266666 25.6 2.133333 17.066667-8.533333 34.133333-25.6 36.266667-149.333333 25.6-275.2 136.533333-328.533333 290.133333-68.266667 204.8-249.6 341.333333-450.133333 341.333333z" fill="#8a8a8a" p-id="1608"></path><path d="M1011.2 215.466667l-149.333333-85.333334c-17.066667-8.533333-36.266667 2.133333-36.266667 21.333334v170.666666c0 19.2 21.333333 29.866667 36.266667 21.333334l149.333333-85.333334c17.066667-10.666667 17.066667-34.133333 0-42.666666z" fill="#8a8a8a" p-id="1609"></path></svg>