<?xml version="1.0" standalone="no"?><!DOCTYPE svg PUBLIC "-//W3C//DTD SVG 1.1//EN" "http://www.w3.org/Graphics/SVG/1.1/DTD/svg11.dtd"><svg t="1636010004474" class="icon" viewBox="0 0 1024 1024" version="1.1" xmlns="http://www.w3.org/2000/svg" p-id="1521" xmlns:xlink="http://www.w3.org/1999/xlink" width="200" height="200"><defs><style type="text/css"></style></defs><path d="M512 947.2c-16 0-33.6-6.4-44.8-19.2l-224-224H160c-52.8 0-96-43.2-96-96V416c0-52.8 43.2-96 96-96h83.2l224-224c17.6-17.6 46.4-24 70.4-14.4C560 92.8 576 115.2 576 140.8v740.8c0 25.6-16 49.6-40 59.2-8 4.8-16 6.4-24 6.4zM160 384c-17.6 0-32 14.4-32 32v192c0 17.6 14.4 32 32 32h96c8 0 16 3.2 22.4 9.6L512 883.2V140.8L278.4 374.4C272 380.8 264 384 256 384h-96z m768 160h-64c-17.6 0-32-14.4-32-32s14.4-32 32-32h64c17.6 0 32 14.4 32 32s-14.4 32-32 32z m-4.8 336c-4.8 0-11.2-1.6-16-4.8l-56-32c-16-9.6-20.8-28.8-11.2-43.2 9.6-16 28.8-20.8 43.2-11.2l56 32c16 9.6 20.8 28.8 11.2 43.2-4.8 9.6-16 16-27.2 16z m-54.4-640c-11.2 0-22.4-6.4-27.2-16-9.6-16-3.2-35.2 11.2-43.2l56-32c16-9.6 35.2-3.2 43.2 11.2 9.6 16 3.2 35.2-11.2 43.2l-56 32c-4.8 3.2-11.2 4.8-16 4.8zM672 686.4c-8 0-17.6-3.2-24-11.2-11.2-12.8-11.2-33.6 3.2-44.8C684.8 600 704 556.8 704 512s-19.2-88-52.8-118.4c-12.8-11.2-14.4-32-3.2-44.8 11.2-12.8 32-14.4 44.8-3.2C740.8 387.2 768 448 768 512s-27.2 124.8-75.2 166.4c-4.8 6.4-12.8 8-20.8 8z" fill="#8a8a8a" p-id="1522"></path></svg>